<svg width="60" height="54" viewBox="0 0 60 54" fill="none" xmlns="http://www.w3.org/2000/svg">
<path d="M16.4583 27.5417L23.9583 34.4167L21.8749 44C21.6666 45.25 22.0833 46.5 23.1249 47.125C23.5416 47.5417 24.1666 47.75 24.7916 47.75C25.2083 47.75 25.6249 47.75 26.0416 47.5417C26.0416 47.5417 26.2499 47.5417 26.2499 47.3333L34.7916 42.5417L43.3333 47.3333C43.3333 47.3333 43.5416 47.3333 43.5416 47.5417C44.5833 47.9583 45.8333 47.9583 46.6666 47.3333C47.7083 46.7083 48.125 45.4583 47.9166 44.2083L45.8333 34.625C46.6666 34 47.9166 32.75 49.1666 31.5L53.125 27.9583L53.3333 27.75C54.1666 26.9167 54.3749 25.6667 53.9583 24.625C53.5416 23.5833 52.7083 22.75 51.4583 22.5417H51.2499L41.4583 21.5L37.4999 12.5417C37.4999 12.5417 37.4999 12.3333 37.2916 12.3333C37.0833 10.875 36.0416 10.25 34.9999 10.25C33.9583 10.25 32.9166 10.875 32.2916 11.9167C32.2916 11.9167 32.2916 12.125 32.0833 12.125L28.1249 21.0833L18.3333 22.125H18.1249C17.0833 22.3333 16.0416 23.1667 15.6249 24.2083C15.4166 25.4583 15.6249 26.7083 16.4583 27.5417Z" fill="#F4D1D5"/>
<path d="M35.1147 43.6791C34.6481 43.6791 34.1918 43.575 33.7689 43.375L33.5522 43.2687L24.996 38.3875L16.4397 43.2708L16.2189 43.3812C15.2022 43.8562 13.9585 43.7437 13.0501 43.0833C12.0731 42.375 11.5897 41.1395 11.8293 39.9395L13.8231 30.2687L10.4856 27.2333L6.53765 23.6395L6.37515 23.4687C5.5939 22.6437 5.31473 21.4479 5.66681 20.3604C6.02723 19.2687 6.95848 18.4604 8.08348 18.2583L8.29598 18.2208L18.0897 17.1354L22.1439 8.15622L22.2689 7.92705C22.8147 6.94163 23.8606 6.3208 24.996 6.3208C26.1272 6.3208 27.171 6.94163 27.7231 7.92497L27.8481 8.1583L31.9064 17.1416L41.7001 18.227L41.9168 18.2625C43.0397 18.4708 43.971 19.275 44.3293 20.3708C44.6835 21.4562 44.4022 22.6583 43.621 23.4833L43.4585 23.6458L36.171 30.2791L38.1647 39.9291C38.4001 41.1521 37.9189 42.3833 36.9356 43.0937C36.4106 43.4729 35.7772 43.6791 35.1147 43.6791ZM18.1376 30.0041C18.0564 30.3833 17.1668 34.6833 16.3772 38.5083L23.9668 34.1812C24.6064 33.8166 25.3918 33.8166 26.0293 34.1812L33.6189 38.5041L31.8501 29.9541C31.7022 29.2333 31.9439 28.4854 32.4918 27.9916L38.9501 22.1125L30.2668 21.1521C29.5356 21.0708 28.9043 20.6104 28.5981 19.9354L24.9981 11.975L21.4022 19.9354C21.0981 20.6062 20.4647 21.0666 19.7335 21.1521L11.0501 22.1125L17.5085 27.9916C18.0751 28.5041 18.3085 29.2771 18.1376 30.0041Z" fill="#C7172C"/>
</svg>
